<?xml version="1.0" encoding="utf-8"?>
<!-- Generator: Adobe Illustrator 24.0.1, SVG Export Plug-In . SVG Version: 6.00 Build 0)  -->
<svg version="1.1" id="Layer_1" xmlns="http://www.w3.org/2000/svg" xmlns:xlink="http://www.w3.org/1999/xlink" x="0px" y="0px"
	 viewBox="0 0 3000 3000" style="enable-background:new 0 0 3000 3000;" xml:space="preserve">
<style type="text/css">
	.st0{display:none;fill:#00FFFF;}
	.st1{display:none;}
	.st2{fill:#29ABE2;}
	.st3{fill:#FFFFFF;}
	.st4{fill:#808080;}
	.st5{fill:#29ABE2;stroke:#000000;stroke-width:12;stroke-miterlimit:10;}
	.st6{fill:#FFFFFF;stroke:#000000;stroke-width:6;stroke-miterlimit:10;}
	.st7{opacity:0.5;fill:#FFFFFF;}
	.st8{display:inline;}
	.st9{fill:none;stroke:#000000;stroke-width:11;stroke-miterlimit:10;}
</style>
<rect x="-7.89" y="-7.89" class="st0" width="3015.79" height="3015.79"/>
<rect x="-7.89" y="-7.89" class="st1" width="3015.79" height="3015.79"/>
<g>
	<circle class="st2" cx="1500" cy="1500" r="1339"/>
	<path d="M2748.93,356.32l0.03-0.01l-0.64-5.53c-0.36-3.08-0.64-5.61-0.87-7.91l-2.13-22.54l-13.08,18.47
		c-79.03,111.58-168.07,115.78-294.89,109.44l-0.3-0.01c-101.94,0-158.26,39.14-187.55,71.98c-16.06,18.01-25.94,36.03-31.86,49.78
		c-5.93-13.77-15.82-31.79-31.86-49.78c-29.28-32.84-85.6-71.98-187.67-71.98l-0.3,0.01c-126.73,6.35-215.71,2.17-294.77-109.45
		l-13.09-18.41l-2.13,22.51c-0.21,2.29-0.5,4.87-0.87,8.03c-3.25,28.5-8.69,76.21,22.22,134.25
		C1746,554.36,1825,617.91,1944.03,674.11c161.1,73.22,171.67,176.79,174.27,231.19h-0.12l-0.09,86.22
		c0,63.09-51.34,114.42-114.44,114.42c-18.27,0-36.45-4.42-52.62-12.79l-1.79-1.4h-0.13c-8.5-6.41-17.26-12.76-26.07-18.88
		l-0.27-0.2c-155.11-108.18-337.42-165.36-527.23-165.36c-124.25,0-244.8,24.27-358.32,72.14
		c-109.63,46.23-208.17,112.44-292.88,196.79c-84.67,84.32-151.28,182.56-197.97,291.99c-48.34,113.27-73.12,233.65-73.67,357.83
		v4.08c0,124.59,24.4,245.45,72.53,359.22c46.49,109.92,113.03,208.61,197.76,293.33c84.72,84.74,183.41,151.27,293.33,197.76
		c113.77,48.13,234.63,72.53,359.22,72.53c306.58,0,592.37-151.73,764.49-405.89c103.58-152.82,158.33-331.58,158.33-516.95
		c0-7.77-0.09-15.13-0.26-21.88l-0.01-0.34l-1.82-885.67l0.27-6.43c2.29-53.72,7.05-165.51,174.84-241.78
		c118.94-56.15,197.93-119.7,234.76-188.89C2755.14,430.66,2752.1,385.26,2748.93,356.32z"/>
	<g>
		<g>
			<path class="st3" d="M1606.23,1787.97v0.19c0,16.38-1.65,32.74-4.92,48.66c-22.94,111.86-122.54,193.05-236.78,193.05
				c-114.26,0-213.85-81.19-236.8-193.05c-3.27-15.92-4.92-32.28-4.92-48.66v-1.68H958.8v1.68c0,223.71,182,405.73,405.73,405.73
				c169.83,0,322.91-107.04,381.19-266.43L1606.23,1787.97z M1749.47,1931.19c-28.68,77.11-79.32,143.21-146.59,191.26
				c-69.83,49.88-152.24,76.25-238.35,76.25c-109.66,0-212.76-42.7-290.29-120.25C996.7,2000.91,954,1897.82,954,1788.16
				c0-0.56,0-1.12,0.02-1.68H790.04v1.68c0,316.77,257.71,574.5,574.5,574.5c214.27,0,409.13-117.83,508.8-307.6L1749.47,1931.19z
				 M1876.89,2058.61c-48.21,91.2-120.05,168.09-207.88,222.47c-91.28,56.5-196.57,86.38-304.48,86.38
				c-78.22,0-154.08-15.32-225.51-45.52c-68.98-29.17-130.93-70.95-184.13-124.15c-53.19-53.19-94.96-115.14-124.14-184.13
				c-30.21-71.41-45.52-147.29-45.52-225.49v-1.68H621.26v1.68c0,409.83,333.43,743.26,743.27,743.26
				c259.45,0,495.81-131.81,632.51-352.66L1876.89,2058.61z M2000.52,2182.25c-65.68,105.76-157.44,194.22-265.47,255.91
				c-112.29,64.16-240.41,98.05-370.51,98.05c-101,0-198.96-19.77-291.2-58.78c-89.07-37.68-169.07-91.62-237.77-160.31
				c-68.71-68.71-122.63-148.7-160.31-237.79c-39-92.23-58.79-190.2-58.79-291.19v-1.68H452.5v1.68
				c0,502.91,409.14,912.04,912.04,912.04c302.28,0,584.21-149.32,754.43-399.51L2000.52,2182.25z M2000.52,2182.25
				c-65.68,105.76-157.44,194.22-265.47,255.91c-112.29,64.16-240.41,98.05-370.51,98.05c-101,0-198.96-19.77-291.2-58.78
				c-89.07-37.68-169.07-91.62-237.77-160.31c-68.71-68.71-122.63-148.7-160.31-237.79c-39-92.23-58.79-190.2-58.79-291.19v-1.68
				H452.5v1.68c0,502.91,409.14,912.04,912.04,912.04c302.28,0,584.21-149.32,754.43-399.51L2000.52,2182.25z M1364.54,2531.42
				c259.45,0,495.81-131.81,632.51-352.66l-120.15-120.15c-48.21,91.2-120.05,168.09-207.88,222.47
				c-91.28,56.5-196.57,86.38-304.48,86.38c-78.22,0-154.08-15.32-225.51-45.52c-68.98-29.17-130.93-70.95-184.13-124.15
				c-53.19-53.19-94.96-115.14-124.14-184.13c-30.21-71.41-45.52-147.29-45.52-225.49v-1.68H621.26v1.68
				C621.26,2197.99,954.69,2531.42,1364.54,2531.42z M1364.54,2362.66c214.27,0,409.13-117.83,508.8-307.6l-123.87-123.87
				c-28.68,77.11-79.32,143.21-146.59,191.26c-69.83,49.88-152.24,76.25-238.35,76.25c-109.66,0-212.76-42.7-290.29-120.25
				C996.7,2000.91,954,1897.82,954,1788.16c0-0.56,0-1.12,0.02-1.68H790.04v1.68C790.04,2104.93,1047.75,2362.66,1364.54,2362.66z
				 M1364.54,2193.89c169.83,0,322.91-107.04,381.19-266.43l-139.49-139.49v0.19c0,16.38-1.65,32.74-4.92,48.66
				c-22.94,111.86-122.54,193.05-236.78,193.05c-114.26,0-213.85-81.19-236.8-193.05c-3.27-15.92-4.92-32.28-4.92-48.66v-1.68H958.8
				v1.68C958.8,2011.87,1140.81,2193.89,1364.54,2193.89z"/>
			<path class="st4" d="M2129.39,2298.63c-33.8,49.14-72.28,94.82-114.76,136.43c-5.32,5.22-10.7,10.38-16.14,15.45
				c-115.36,107.73-258.38,186.2-417.25,223.6c-0.38,0.11-0.78,0.19-1.17,0.29c-37.8,8.85-76.52,15.39-115.96,19.42
				c-31.32,3.22-63.1,4.87-95.27,4.87c-73.04,0-144.12-8.49-212.28-24.53c-180.85-42.59-341.19-138.37-463.55-269.96
				c-10.98-11.78-21.65-23.87-31.99-36.23c-0.22-0.26-0.43-0.5-0.61-0.75c-107.77-128.96-180.98-287.79-205.4-462.25
				c-0.02-0.16-0.03-0.32-0.06-0.46c-5.44-39.02-8.44-78.83-8.84-119.24h12.3c0.02,0.4,0.03,0.8,0.06,1.22
				c12.44,245.87,121.13,466.39,289.14,624.55h0.02l0.02,0.02c123.27,116.08,278.46,198.61,451.03,233
				c58.65,11.69,119.3,17.82,181.38,17.82c14.55,0,29.03-0.34,43.42-1.01h0.02c220.27-10.2,420.35-97.64,573.84-235.85
				c43.17-38.86,82.65-81.76,117.85-128.09c0.99-1.28,1.97-2.56,2.93-3.86c0.78-1.04,1.58-2.1,2.35-3.15l3.46,3.38l3.51,3.43
				L2129.39,2298.63z"/>
			<path class="st4" d="M2003.88,2175.79c-0.38,0.62-0.78,1.23-1.17,1.86c-61.85,98.49-145.96,181.59-245.28,242.22
				c-0.53,0.32-1.04,0.64-1.57,0.96c-72.12,43.78-152.17,75.75-237.53,93.2h-0.02c-48.8,9.99-99.32,15.23-151.07,15.23
				c-86.14,0-168.89-14.52-245.92-41.28c-165-57.24-303.82-170.51-393.69-317.03c-68.96-112.4-109.12-244.39-110.19-385.69
				c-0.02-1.18-0.03-2.39-0.02-3.59h9.78c0.03,1.2,0.1,2.39,0.16,3.59c0.02,0.4,0.03,0.82,0.05,1.22
				c15.48,319.05,230.41,585.75,522.76,678.12c71.36,22.56,147.35,34.73,226.18,34.73c35.55,0,70.51-2.48,104.75-7.27
				c212.25-29.65,396.01-148.17,512.5-316.74c0.94-1.33,1.86-2.67,2.77-4.02c0.4-0.58,0.78-1.14,1.17-1.71L2003.88,2175.79z"/>
			<path class="st4" d="M1874.34,2049.02c-0.03,0.05-0.06,0.11-0.1,0.16c-0.75,1.49-1.54,2.99-2.32,4.47
				c-95.56,182.16-286.51,306.43-506.49,306.43c-315.67,0-571.58-255.91-571.58-571.58c0-0.67,0-1.34,0.02-2.02
				c-0.02-0.42-0.02-0.82,0-1.22c0-1.2,0.02-2.4,0.03-3.59h7.13c0.03,1.2,0.06,2.4,0.11,3.59c0,0.4,0.02,0.82,0.05,1.22
				c10.94,306.03,262.48,550.78,571.2,550.78c212.15,0,397.33-115.59,495.94-287.22c0.83-1.44,1.65-2.88,2.47-4.32
				c0.02-0.05,0.05-0.08,0.06-0.11L1874.34,2049.02z"/>
			<path class="st4" d="M1744.25,1921.7c-0.38,1.06-0.77,2.1-1.15,3.14c-57.31,153.76-205.44,263.26-379.17,263.26
				c-222.45,0-402.95-179.54-404.5-401.62c-0.02-0.4-0.02-0.82,0-1.22c-0.02-0.56-0.02-1.12-0.02-1.68v-1.91h5.17
				c0.03,1.2,0.08,2.39,0.14,3.59c0,0.4,0.02,0.82,0.05,1.22c9.93,214.56,187.05,385.48,404.07,385.48
				c167.98,0,312.05-102.39,373.2-248.18c0.42-0.99,0.83-2,1.25-3.01L1744.25,1921.7z"/>
			<path class="st5" d="M2711.37,309.6l-1.59,0.18l1.59-0.3c-0.34-2.9-0.64-5.59-0.88-8.04l-0.61-6.44l-3.73,5.27
				c-80.81,114.1-171.24,118.41-300.09,111.97c-99.74,0-154.61,38.06-183.08,69.97c-22.51,25.25-32.49,50.58-36.33,62.99
				c-3.86-12.41-13.83-37.74-36.35-62.99c-28.45-31.91-83.32-69.97-183.19-69.97c-128.73,6.45-219.15,2.13-299.96-111.97l-3.75-5.27
				l-0.61,6.44c-0.22,2.45-0.53,5.14-0.88,8.17c-3.17,27.81-8.47,74.37,21.55,130.75c36.22,68.03,114.29,130.7,232.04,186.29
				c169.21,76.9,175.68,187.94,178.06,242.66h-0.4l-0.08,80.22c0,66.4-54.02,120.42-120.44,120.42c-19.44,0-38.78-4.76-55.94-13.75
				l-0.53-0.43h-0.08c-9.03-6.85-18.3-13.58-27.57-20.01l-0.19-0.14c-154.1-107.47-335.22-164.28-523.8-164.28
				c-123.45,0-243.22,24.11-355.99,71.67c-108.94,45.94-206.82,111.71-290.98,195.52c-84.12,83.77-150.3,181.38-196.69,290.1
				c-48.02,112.53-72.64,232.12-73.19,355.47v4.08c0,123.79,24.24,243.86,72.05,356.88c46.18,109.18,112.27,207.24,196.48,291.43
				c84.19,84.2,182.24,150.3,291.43,196.48c113.03,47.81,233.11,72.05,356.88,72.05c304.59,0,588.52-150.75,759.53-403.25
				c102.91-151.82,157.3-329.42,157.3-513.59c0-7.46-0.08-14.78-0.26-21.73l-0.02-0.35l-1.83-886.29h0.02l0.26-6.18
				c2.34-54.92,7.17-169.21,178.27-246.98c117.73-55.58,195.81-118.25,232.02-186.28C2719.84,383.98,2714.54,337.41,2711.37,309.6z
				 M1074.25,2078.45c77.53,77.54,180.63,120.25,290.29,120.25c86.11,0,168.52-26.37,238.35-76.25
				c67.26-48.05,117.91-114.15,146.59-191.26l123.87,123.87c-99.67,189.77-294.53,307.6-508.8,307.6
				c-316.79,0-574.5-257.72-574.5-574.5v-1.68h163.97c-0.02,0.56-0.02,1.12-0.02,1.68C954,1897.82,996.7,2000.91,1074.25,2078.45z
				 M1364.54,2193.89c-223.73,0-405.73-182.02-405.73-405.73v-1.68h164.02v1.68c0,16.38,1.65,32.74,4.92,48.66
				c22.94,111.86,122.54,193.05,236.8,193.05c114.24,0,213.83-81.19,236.78-193.05c3.27-15.92,4.92-32.28,4.92-48.66v-0.19
				l139.49,139.49C1687.44,2086.86,1534.37,2193.89,1364.54,2193.89z M621.26,1786.48h163.97v1.68c0,78.2,15.31,154.08,45.52,225.49
				c29.17,68.99,70.95,130.94,124.14,184.13c53.21,53.21,115.16,94.98,184.13,124.15c71.43,30.2,147.29,45.52,225.51,45.52
				c107.9,0,213.19-29.88,304.48-86.38c87.82-54.38,159.67-131.26,207.88-222.47l120.15,120.15
				c-136.69,220.85-373.05,352.66-632.51,352.66c-409.85,0-743.27-333.43-743.27-743.26V1786.48z M1364.54,2700.2
				c-502.89,0-912.04-409.13-912.04-912.04v-1.68h163.96v1.68c0,100.99,19.79,198.96,58.79,291.19
				c37.68,89.09,91.6,169.08,160.31,237.79c68.71,68.69,148.7,122.63,237.77,160.31c92.24,39,190.2,58.78,291.2,58.78
				c130.09,0,258.22-33.9,370.51-98.05c108.03-61.69,199.79-150.16,265.47-255.91l118.45,118.44
				C1948.75,2550.87,1666.82,2700.2,1364.54,2700.2z"/>
			<path class="st6" d="M1437.47,1756.14c0,40.22-32.71,72.93-72.93,72.93c-40.22,0-72.95-32.71-72.95-72.93
				c0-40.22,32.73-72.93,72.95-72.93C1404.76,1683.2,1437.47,1715.92,1437.47,1756.14z"/>
			<g>
				<path d="M1031.18,1016.85c-11.08,47.29-58.4,76.64-105.69,65.55c-8.88-2.08-17.13-5.44-24.59-9.84
					c57.78,6.99,112.98-27.26,132.4-82.12C1033.92,999.09,1033.26,1007.97,1031.18,1016.85z"/>
			</g>
			<path class="st7" d="M1450.52,877.87c-462.8,43.47-825.14,432.34-826.57,906.18H451.01c1.52-502.96,409.74-910.23,913.04-910.23
				C1393.21,873.82,1422.07,875.18,1450.52,877.87z"/>
		</g>
	</g>
</g>
<g class="st1">
	<g class="st8">
		<path class="st3" d="M1606.23,1787.97v0.19c0,16.38-1.65,32.74-4.92,48.66c-22.94,111.86-122.54,193.05-236.78,193.05
			c-114.26,0-213.85-81.19-236.8-193.05c-3.27-15.92-4.92-32.28-4.92-48.66v-1.68H958.8v1.68c0,223.71,182,405.73,405.73,405.73
			c169.83,0,322.91-107.04,381.19-266.43L1606.23,1787.97z M1749.47,1931.19c-28.68,77.11-79.32,143.21-146.59,191.26
			c-69.83,49.88-152.24,76.25-238.35,76.25c-109.66,0-212.76-42.7-290.29-120.25C996.7,2000.91,954,1897.82,954,1788.16
			c0-0.56,0-1.12,0.02-1.68H790.04v1.68c0,316.77,257.71,574.5,574.5,574.5c214.27,0,409.13-117.83,508.8-307.6L1749.47,1931.19z
			 M1876.89,2058.61c-48.21,91.2-120.05,168.09-207.88,222.47c-91.28,56.5-196.57,86.38-304.48,86.38
			c-78.22,0-154.08-15.32-225.51-45.52c-68.98-29.17-130.93-70.95-184.13-124.15c-53.19-53.19-94.96-115.14-124.14-184.13
			c-30.21-71.41-45.52-147.29-45.52-225.49v-1.68H621.26v1.68c0,409.83,333.43,743.26,743.27,743.26
			c259.45,0,495.81-131.81,632.51-352.66L1876.89,2058.61z M2000.52,2182.25c-65.68,105.76-157.44,194.22-265.47,255.91
			c-112.29,64.16-240.41,98.05-370.51,98.05c-101,0-198.96-19.77-291.2-58.78c-89.07-37.68-169.07-91.62-237.77-160.31
			c-68.71-68.71-122.63-148.7-160.31-237.79c-39-92.23-58.79-190.2-58.79-291.19v-1.68H452.5v1.68
			c0,502.91,409.14,912.04,912.04,912.04c302.28,0,584.21-149.32,754.43-399.51L2000.52,2182.25z M2000.52,2182.25
			c-65.68,105.76-157.44,194.22-265.47,255.91c-112.29,64.16-240.41,98.05-370.51,98.05c-101,0-198.96-19.77-291.2-58.78
			c-89.07-37.68-169.07-91.62-237.77-160.31c-68.71-68.71-122.63-148.7-160.31-237.79c-39-92.23-58.79-190.2-58.79-291.19v-1.68
			H452.5v1.68c0,502.91,409.14,912.04,912.04,912.04c302.28,0,584.21-149.32,754.43-399.51L2000.52,2182.25z M1364.54,2531.42
			c259.45,0,495.81-131.81,632.51-352.66l-120.15-120.15c-48.21,91.2-120.05,168.09-207.88,222.47
			c-91.28,56.5-196.57,86.38-304.48,86.38c-78.22,0-154.08-15.32-225.51-45.52c-68.98-29.17-130.93-70.95-184.13-124.15
			c-53.19-53.19-94.96-115.14-124.14-184.13c-30.21-71.41-45.52-147.29-45.52-225.49v-1.68H621.26v1.68
			C621.26,2197.99,954.69,2531.42,1364.54,2531.42z M1364.54,2362.66c214.27,0,409.13-117.83,508.8-307.6l-123.87-123.87
			c-28.68,77.11-79.32,143.21-146.59,191.26c-69.83,49.88-152.24,76.25-238.35,76.25c-109.66,0-212.76-42.7-290.29-120.25
			C996.7,2000.91,954,1897.82,954,1788.16c0-0.56,0-1.12,0.02-1.68H790.04v1.68C790.04,2104.93,1047.75,2362.66,1364.54,2362.66z
			 M1364.54,2193.89c169.83,0,322.91-107.04,381.19-266.43l-139.49-139.49v0.19c0,16.38-1.65,32.74-4.92,48.66
			c-22.94,111.86-122.54,193.05-236.78,193.05c-114.26,0-213.85-81.19-236.8-193.05c-3.27-15.92-4.92-32.28-4.92-48.66v-1.68H958.8
			v1.68C958.8,2011.87,1140.81,2193.89,1364.54,2193.89z"/>
		<path class="st4" d="M2129.39,2298.63c-33.8,49.14-72.28,94.82-114.76,136.43c-5.32,5.22-10.7,10.38-16.14,15.45
			c-115.36,107.73-258.38,186.2-417.25,223.6c-0.38,0.11-0.78,0.19-1.17,0.29c-37.8,8.85-76.52,15.39-115.96,19.42
			c-31.32,3.22-63.1,4.87-95.27,4.87c-73.04,0-144.12-8.49-212.28-24.53c-180.85-42.59-341.19-138.37-463.55-269.96
			c-10.98-11.78-21.65-23.87-31.99-36.23c-0.22-0.26-0.43-0.5-0.61-0.75c-107.77-128.96-180.98-287.79-205.4-462.25
			c-0.02-0.16-0.03-0.32-0.06-0.46c-5.44-39.02-8.44-78.83-8.84-119.24h12.3c0.02,0.4,0.03,0.8,0.06,1.22
			c12.44,245.87,121.13,466.39,289.14,624.55h0.02l0.02,0.02c123.27,116.08,278.46,198.61,451.03,233
			c58.65,11.69,119.3,17.82,181.38,17.82c14.55,0,29.03-0.34,43.42-1.01h0.02c220.27-10.2,420.35-97.64,573.84-235.85
			c43.17-38.86,82.65-81.76,117.85-128.09c0.99-1.28,1.97-2.56,2.93-3.86c0.78-1.04,1.58-2.1,2.35-3.15l3.46,3.38l3.51,3.43
			L2129.39,2298.63z"/>
		<path class="st4" d="M2003.88,2175.79c-0.38,0.62-0.78,1.23-1.17,1.86c-61.85,98.49-145.96,181.59-245.28,242.22
			c-0.53,0.32-1.04,0.64-1.57,0.96c-72.12,43.78-152.17,75.75-237.53,93.2h-0.02c-48.8,9.99-99.32,15.23-151.07,15.23
			c-86.14,0-168.89-14.52-245.92-41.28c-165-57.24-303.82-170.51-393.69-317.03c-68.96-112.4-109.12-244.39-110.19-385.69
			c-0.02-1.18-0.03-2.39-0.02-3.59h9.78c0.03,1.2,0.1,2.39,0.16,3.59c0.02,0.4,0.03,0.82,0.05,1.22
			c15.48,319.05,230.41,585.75,522.76,678.12c71.36,22.56,147.35,34.73,226.18,34.73c35.55,0,70.51-2.48,104.75-7.27
			c212.25-29.65,396.01-148.17,512.5-316.74c0.94-1.33,1.86-2.67,2.77-4.02c0.4-0.58,0.78-1.14,1.17-1.71L2003.88,2175.79z"/>
		<path class="st4" d="M1874.34,2049.02c-0.03,0.05-0.06,0.11-0.1,0.16c-0.75,1.49-1.54,2.99-2.32,4.47
			c-95.56,182.16-286.51,306.43-506.49,306.43c-315.67,0-571.58-255.91-571.58-571.58c0-0.67,0-1.34,0.02-2.02
			c-0.02-0.42-0.02-0.82,0-1.22c0-1.2,0.02-2.4,0.03-3.59h7.13c0.03,1.2,0.06,2.4,0.11,3.59c0,0.4,0.02,0.82,0.05,1.22
			c10.94,306.03,262.48,550.78,571.2,550.78c212.15,0,397.33-115.59,495.94-287.22c0.83-1.44,1.65-2.88,2.47-4.32
			c0.02-0.05,0.05-0.08,0.06-0.11L1874.34,2049.02z"/>
		<path class="st4" d="M1744.25,1921.7c-0.38,1.06-0.77,2.1-1.15,3.14c-57.31,153.76-205.44,263.26-379.17,263.26
			c-222.45,0-402.95-179.54-404.5-401.62c-0.02-0.4-0.02-0.82,0-1.22c-0.02-0.56-0.02-1.12-0.02-1.68v-1.91h5.17
			c0.03,1.2,0.08,2.39,0.14,3.59c0,0.4,0.02,0.82,0.05,1.22c9.93,214.56,187.05,385.48,404.07,385.48
			c167.98,0,312.05-102.39,373.2-248.18c0.42-0.99,0.83-2,1.25-3.01L1744.25,1921.7z"/>
		<path class="st5" d="M2711.37,309.6l-1.59,0.18l1.59-0.3c-0.34-2.9-0.64-5.59-0.88-8.04l-0.61-6.44l-3.73,5.27
			c-80.81,114.1-171.24,118.41-300.09,111.97c-99.74,0-154.61,38.06-183.08,69.97c-22.51,25.25-32.49,50.58-36.33,62.99
			c-3.86-12.41-13.83-37.74-36.35-62.99c-28.45-31.91-83.32-69.97-183.19-69.97c-128.73,6.45-219.15,2.13-299.96-111.97l-3.75-5.27
			l-0.61,6.44c-0.22,2.45-0.53,5.14-0.88,8.17c-3.17,27.81-8.47,74.37,21.55,130.75c36.22,68.03,114.29,130.7,232.04,186.29
			c169.21,76.9,175.68,187.94,178.06,242.66h-0.4l-0.08,80.22c0,66.4-54.02,120.42-120.44,120.42c-19.44,0-38.78-4.76-55.94-13.75
			l-0.53-0.43h-0.08c-9.03-6.85-18.3-13.58-27.57-20.01l-0.19-0.14c-154.1-107.47-335.22-164.28-523.8-164.28
			c-123.45,0-243.22,24.11-355.99,71.67c-108.94,45.94-206.82,111.71-290.98,195.52c-84.12,83.77-150.3,181.38-196.69,290.1
			c-48.02,112.53-72.64,232.12-73.19,355.47v4.08c0,123.79,24.24,243.86,72.05,356.88c46.18,109.18,112.27,207.24,196.48,291.43
			c84.19,84.2,182.24,150.3,291.43,196.48c113.03,47.81,233.11,72.05,356.88,72.05c304.59,0,588.52-150.75,759.53-403.25
			c102.91-151.82,157.3-329.42,157.3-513.59c0-7.46-0.08-14.78-0.26-21.73l-0.02-0.35l-1.83-886.29h0.02l0.26-6.18
			c2.34-54.92,7.17-169.21,178.27-246.98c117.73-55.58,195.81-118.25,232.02-186.28C2719.84,383.98,2714.54,337.41,2711.37,309.6z
			 M1074.25,2078.45c77.53,77.54,180.63,120.25,290.29,120.25c86.11,0,168.52-26.37,238.35-76.25
			c67.26-48.05,117.91-114.15,146.59-191.26l123.87,123.87c-99.67,189.77-294.53,307.6-508.8,307.6
			c-316.79,0-574.5-257.72-574.5-574.5v-1.68h163.97c-0.02,0.56-0.02,1.12-0.02,1.68C954,1897.82,996.7,2000.91,1074.25,2078.45z
			 M1364.54,2193.89c-223.73,0-405.73-182.02-405.73-405.73v-1.68h164.02v1.68c0,16.38,1.65,32.74,4.92,48.66
			c22.94,111.86,122.54,193.05,236.8,193.05c114.24,0,213.83-81.19,236.78-193.05c3.27-15.92,4.92-32.28,4.92-48.66v-0.19
			l139.49,139.49C1687.44,2086.86,1534.37,2193.89,1364.54,2193.89z M621.26,1786.48h163.97v1.68c0,78.2,15.31,154.08,45.52,225.49
			c29.17,68.99,70.95,130.94,124.14,184.13c53.21,53.21,115.16,94.98,184.13,124.15c71.43,30.2,147.29,45.52,225.51,45.52
			c107.9,0,213.19-29.88,304.48-86.38c87.82-54.38,159.67-131.26,207.88-222.47l120.15,120.15
			c-136.69,220.85-373.05,352.66-632.51,352.66c-409.85,0-743.27-333.43-743.27-743.26V1786.48z M1364.54,2700.2
			c-502.89,0-912.04-409.13-912.04-912.04v-1.68h163.96v1.68c0,100.99,19.79,198.96,58.79,291.19
			c37.68,89.09,91.6,169.08,160.31,237.79c68.71,68.69,148.7,122.63,237.77,160.31c92.24,39,190.2,58.78,291.2,58.78
			c130.09,0,258.22-33.9,370.51-98.05c108.03-61.69,199.79-150.16,265.47-255.91l118.45,118.44
			C1948.75,2550.87,1666.82,2700.2,1364.54,2700.2z"/>
		<path class="st6" d="M1437.47,1756.14c0,40.22-32.71,72.93-72.93,72.93c-40.22,0-72.95-32.71-72.95-72.93
			c0-40.22,32.73-72.93,72.95-72.93C1404.76,1683.2,1437.47,1715.92,1437.47,1756.14z"/>
		<g>
			<path d="M1031.18,1016.85c-11.08,47.29-58.4,76.64-105.69,65.55c-8.88-2.08-17.13-5.44-24.59-9.84
				c57.78,6.99,112.98-27.26,132.4-82.12C1033.92,999.09,1033.26,1007.97,1031.18,1016.85z"/>
		</g>
		<path class="st7" d="M1450.52,877.87c-462.8,43.47-825.14,432.34-826.57,906.18H451.01c1.52-502.96,409.74-910.23,913.04-910.23
			C1393.21,873.82,1422.07,875.18,1450.52,877.87z"/>
	</g>
</g>
<g class="st1">
	<g class="st8">
		<path class="st9" d="M2122.62,844.89l-0.87,0.1l0.87-0.17c-0.18-1.59-0.35-3.08-0.48-4.42l-0.33-3.54l-2.05,2.9
			c-44.47,62.79-94.24,65.16-165.15,61.62c-54.89,0-85.08,20.95-100.75,38.51c-12.39,13.9-17.88,27.84-19.99,34.66
			c-2.12-6.83-7.61-20.77-20-34.66c-15.66-17.56-45.86-38.51-100.81-38.51c-70.85,3.55-120.6,1.17-165.08-61.62l-2.06-2.9
			l-0.33,3.54c-0.12,1.35-0.29,2.83-0.48,4.49c-1.74,15.31-4.66,40.93,11.86,71.96c19.93,37.44,62.9,71.93,127.7,102.52
			c93.12,42.32,96.68,103.43,97.99,133.54h-0.22l-0.04,44.15c0,36.54-29.73,66.27-66.28,66.27c-10.7,0-21.34-2.62-30.79-7.57
			l-0.29-0.24h-0.04c-4.97-3.77-10.07-7.47-15.17-11.01l-0.11-0.08c-84.8-59.14-184.48-90.41-288.26-90.41
			c-67.94,0-133.85,13.27-195.91,39.44c-59.95,25.28-113.82,61.48-160.13,107.6c-46.3,46.1-82.71,99.82-108.24,159.65
			c-26.43,61.93-39.98,127.74-40.28,195.63v2.25c0,68.12,13.34,134.2,39.65,196.4c25.41,60.09,61.79,114.05,108.13,160.38
			c46.33,46.34,100.29,82.71,160.38,108.13c62.2,26.31,128.29,39.65,196.4,39.65c167.62,0,323.88-82.96,417.99-221.92
			c56.63-83.55,86.57-181.29,86.57-282.64c0-4.11-0.04-8.13-0.14-11.96l-0.01-0.19l-1-487.75h0.01l0.14-3.4
			c1.29-30.22,3.95-93.12,98.11-135.92c64.79-30.59,107.76-65.07,127.69-102.51C2127.28,885.82,2124.37,860.2,2122.62,844.89z
			 M1221.67,1818.34c42.67,42.67,99.4,66.18,159.75,66.18c47.39,0,92.74-14.51,131.17-41.96c37.02-26.44,64.89-62.82,80.67-105.25
			l68.17,68.17c-54.85,104.44-162.09,169.28-280.01,169.28c-174.34,0-316.16-141.83-316.16-316.16v-0.93h90.24
			c-0.01,0.31-0.01,0.62-0.01,0.93C1155.49,1718.93,1179,1775.66,1221.67,1818.34z M1381.42,1881.87
			c-123.12,0-223.29-100.17-223.29-223.29v-0.93h90.27v0.93c0,9.01,0.91,18.02,2.71,26.78c12.63,61.56,67.44,106.24,130.31,106.24
			c62.87,0,117.68-44.68,130.31-106.24c1.8-8.76,2.71-17.76,2.71-26.78v-0.11l76.77,76.77
			C1559.13,1822.96,1474.89,1881.87,1381.42,1881.87z M972.38,1657.66h90.24v0.93c0,43.04,8.42,84.79,25.05,124.09
			c16.05,37.97,39.04,72.06,68.32,101.33c29.28,29.28,63.37,52.27,101.33,68.33c39.31,16.62,81.06,25.05,124.1,25.05
			c59.38,0,117.33-16.44,167.56-47.54c48.33-29.92,87.87-72.24,114.4-122.43l66.12,66.12c-75.22,121.54-205.3,194.08-348.08,194.08
			c-225.55,0-409.04-183.49-409.04-409.03V1657.66z M1381.42,2160.5c-276.75,0-501.92-225.15-501.92-501.92v-0.93h90.23v0.93
			c0,55.57,10.89,109.49,32.36,160.25c20.73,49.03,50.41,93.05,88.22,130.86c37.81,37.8,81.83,67.49,130.85,88.22
			c50.76,21.47,104.67,32.35,160.26,32.35c71.59,0,142.1-18.65,203.9-53.96c59.45-33.95,109.95-82.64,146.1-140.84l65.19,65.18
			C1702.93,2078.32,1547.78,2160.5,1381.42,2160.5z"/>
		<path class="st9" d="M1421.56,1640.96c0,22.13-18,40.14-40.14,40.14c-22.13,0-40.15-18-40.15-40.14
			c0-22.13,18.01-40.14,40.15-40.14C1403.56,1600.82,1421.56,1618.82,1421.56,1640.96z"/>
		<g>
			<path d="M1197.97,1234.11c-6.1,26.03-32.14,42.18-58.16,36.08c-4.89-1.15-9.43-3-13.53-5.41c31.8,3.84,62.18-15,72.86-45.19
				C1199.48,1224.34,1199.12,1229.22,1197.97,1234.11z"/>
		</g>
	</g>
</g>
</svg>
