<?xml version="1.0" encoding="utf-8"?>
<!-- Generator: Adobe Illustrator 24.0.1, SVG Export Plug-In . SVG Version: 6.00 Build 0)  -->
<svg version="1.1" xmlns="http://www.w3.org/2000/svg" xmlns:xlink="http://www.w3.org/1999/xlink" x="0px" y="0px"
	 viewBox="0 0 841.9 595.3" style="enable-background:new 0 0 841.9 595.3;" xml:space="preserve">
<style type="text/css">
	.st0{display:none;}
	.st1{display:inline;}
	.st2{fill:url(#SVGID_1_);}
	.st3{fill:#010101;}
	.st4{fill:#FFFFFF;}
	.st5{fill:#818181;}
	.st6{fill:#2AAAE2;}
	.st7{opacity:0.5;}
	.st8{display:none;fill:#FFFFFF;}
	.st9{font-family:'Roboto-Bold';}
	.st10{font-size:72px;}
</style>
<g id="Layer_1" class="st0">
	<rect x="-0.25" y="-2.59" class="st1" width="842.4" height="600.48"/>
</g>
<g id="Layer_2">
	<g>
		<linearGradient id="SVGID_1_" gradientUnits="userSpaceOnUse" x1="141.4818" y1="203.6767" x2="274.1128" y2="433.4003">
			<stop  offset="0" style="stop-color:#00AEEF"/>
			<stop  offset="0.0967" style="stop-color:#00AAEC"/>
			<stop  offset="0.2144" style="stop-color:#00A3E6"/>
			<stop  offset="0.3431" style="stop-color:#0098DC"/>
			<stop  offset="0.4796" style="stop-color:#0088CE"/>
			<stop  offset="0.6223" style="stop-color:#0073BD"/>
			<stop  offset="0.7703" style="stop-color:#005BAB"/>
			<stop  offset="0.9198" style="stop-color:#283996"/>
			<stop  offset="0.9329" style="stop-color:#2B3695"/>
		</linearGradient>
		<circle class="st2" cx="195.74" cy="297.65" r="108.49"/>
		<path class="st3" d="M296.93,204.98L296.93,204.98l-0.05-0.45c-0.03-0.25-0.05-0.45-0.07-0.64l-0.17-1.83l-1.06,1.5
			c-6.4,9.04-13.62,9.38-23.89,8.87l-0.02,0c-8.26,0-12.82,3.17-15.2,5.83c-1.3,1.46-2.1,2.92-2.58,4.03
			c-0.48-1.12-1.28-2.58-2.58-4.03c-2.37-2.66-6.94-5.83-15.21-5.83l-0.02,0c-10.27,0.51-17.48,0.18-23.88-8.87l-1.06-1.49
			l-0.17,1.82c-0.02,0.19-0.04,0.39-0.07,0.65c-0.26,2.31-0.7,6.18,1.8,10.88c2.98,5.61,9.38,10.76,19.03,15.31
			c13.05,5.93,13.91,14.32,14.12,18.73h-0.01l-0.01,6.99c0,5.11-4.16,9.27-9.27,9.27c-1.48,0-2.95-0.36-4.26-1.04l-0.14-0.11h-0.01
			c-0.69-0.52-1.4-1.03-2.11-1.53l-0.02-0.02c-12.57-8.76-27.34-13.4-42.72-13.4c-10.07,0-19.83,1.97-29.03,5.85
			c-8.88,3.75-16.87,9.11-23.73,15.94c-6.86,6.83-12.26,14.79-16.04,23.66c-3.92,9.18-5.92,18.93-5.97,28.99v0.33
			c0,10.09,1.98,19.89,5.88,29.11c3.77,8.91,9.16,16.9,16.02,23.77c6.86,6.87,14.86,12.26,23.77,16.02
			c9.22,3.9,19.01,5.88,29.11,5.88c24.84,0,48-12.29,61.94-32.89c8.39-12.38,12.83-26.87,12.83-41.89c0-0.63-0.01-1.23-0.02-1.77
			l0-0.03l-0.15-71.76l0.02-0.52c0.19-4.35,0.57-13.41,14.17-19.59c9.64-4.55,16.04-9.7,19.02-15.3
			C297.43,211.01,297.19,207.33,296.93,204.98z"/>
		<g>
			<g>
				<g>
					<path class="st4" d="M204.34,320.98V321c0,1.33-0.13,2.65-0.4,3.94c-1.86,9.06-9.93,15.64-19.18,15.64
						c-9.26,0-17.33-6.58-19.19-15.64c-0.26-1.29-0.4-2.62-0.4-3.94v-0.14h-13.29V321c0,18.13,14.75,32.87,32.87,32.87
						c13.76,0,26.16-8.67,30.89-21.59L204.34,320.98z M215.95,332.58c-2.32,6.25-6.43,11.6-11.88,15.5
						c-5.66,4.04-12.33,6.18-19.31,6.18c-8.89,0-17.24-3.46-23.52-9.74c-6.28-6.28-9.74-14.64-9.74-23.52c0-0.05,0-0.09,0-0.14
						h-13.29V321c0,25.67,20.88,46.55,46.55,46.55c17.36,0,33.15-9.55,41.22-24.92L215.95,332.58z M226.27,342.91
						c-3.91,7.39-9.73,13.62-16.84,18.02c-7.4,4.58-15.93,7-24.67,7c-6.34,0-12.48-1.24-18.27-3.69
						c-5.59-2.36-10.61-5.75-14.92-10.06c-4.31-4.31-7.69-9.33-10.06-14.92c-2.45-5.79-3.69-11.93-3.69-18.27v-0.14h-13.29V321
						c0,33.21,27.02,60.22,60.22,60.22c21.02,0,40.17-10.68,51.25-28.57L226.27,342.91z M236.29,352.93
						c-5.32,8.57-12.76,15.74-21.51,20.73c-9.1,5.2-19.48,7.94-30.02,7.94c-8.18,0-16.12-1.6-23.59-4.76
						c-7.22-3.05-13.7-7.42-19.27-12.99c-5.57-5.57-9.94-12.05-12.99-19.27c-3.16-7.47-4.76-15.41-4.76-23.59v-0.14h-13.28V321
						c0,40.75,33.15,73.9,73.9,73.9c24.49,0,47.34-12.1,61.13-32.37L236.29,352.93z M236.29,352.93
						c-5.32,8.57-12.76,15.74-21.51,20.73c-9.1,5.2-19.48,7.94-30.02,7.94c-8.18,0-16.12-1.6-23.59-4.76
						c-7.22-3.05-13.7-7.42-19.27-12.99c-5.57-5.57-9.94-12.05-12.99-19.27c-3.16-7.47-4.76-15.41-4.76-23.59v-0.14h-13.28V321
						c0,40.75,33.15,73.9,73.9,73.9c24.49,0,47.34-12.1,61.13-32.37L236.29,352.93z M184.76,381.22c21.02,0,40.17-10.68,51.25-28.57
						l-9.74-9.74c-3.91,7.39-9.73,13.62-16.84,18.02c-7.4,4.58-15.93,7-24.67,7c-6.34,0-12.48-1.24-18.27-3.69
						c-5.59-2.36-10.61-5.75-14.92-10.06c-4.31-4.31-7.69-9.33-10.06-14.92c-2.45-5.79-3.69-11.93-3.69-18.27v-0.14h-13.29V321
						C124.54,354.2,151.55,381.22,184.76,381.22z M184.76,367.54c17.36,0,33.15-9.55,41.22-24.92l-10.04-10.04
						c-2.32,6.25-6.43,11.6-11.88,15.5c-5.66,4.04-12.33,6.18-19.31,6.18c-8.89,0-17.24-3.46-23.52-9.74
						c-6.28-6.28-9.74-14.64-9.74-23.52c0-0.05,0-0.09,0-0.14h-13.29V321C138.21,346.66,159.09,367.54,184.76,367.54z
						 M184.76,353.87c13.76,0,26.16-8.67,30.89-21.59l-11.3-11.3V321c0,1.33-0.13,2.65-0.4,3.94c-1.86,9.06-9.93,15.64-19.18,15.64
						c-9.26,0-17.33-6.58-19.19-15.64c-0.26-1.29-0.4-2.62-0.4-3.94v-0.14h-13.29V321C151.89,339.12,166.63,353.87,184.76,353.87z"
						/>
				</g>
				<g>
					<path class="st5" d="M246.73,362.36c-2.74,3.98-5.86,7.68-9.3,11.05c-0.43,0.42-0.87,0.84-1.31,1.25
						c-9.35,8.73-20.93,15.09-33.81,18.12c-0.03,0.01-0.06,0.02-0.09,0.02c-3.06,0.72-6.2,1.25-9.4,1.57
						c-2.54,0.26-5.11,0.39-7.72,0.39c-5.92,0-11.68-0.69-17.2-1.99c-14.65-3.45-27.64-11.21-37.56-21.87
						c-0.89-0.95-1.75-1.93-2.59-2.94c-0.02-0.02-0.04-0.04-0.05-0.06c-8.73-10.45-14.66-23.32-16.64-37.45c0-0.01,0-0.03-0.01-0.04
						c-0.44-3.16-0.68-6.39-0.72-9.66h1c0,0.03,0,0.06,0.01,0.1c1.01,19.92,9.81,37.79,23.43,50.6h0l0,0
						c9.99,9.41,22.56,16.09,36.54,18.88c4.75,0.95,9.67,1.44,14.7,1.44c1.18,0,2.35-0.03,3.52-0.08h0
						c17.85-0.83,34.06-7.91,46.49-19.11c3.5-3.15,6.7-6.62,9.55-10.38c0.08-0.1,0.16-0.21,0.24-0.31c0.06-0.08,0.13-0.17,0.19-0.26
						l0.28,0.27l0.28,0.28L246.73,362.36z"/>
				</g>
				<g>
					<path class="st5" d="M236.56,352.4c-0.03,0.05-0.06,0.1-0.09,0.15c-5.01,7.98-11.83,14.71-19.87,19.63
						c-0.04,0.03-0.08,0.05-0.13,0.08c-5.84,3.55-12.33,6.14-19.25,7.55h0c-3.95,0.81-8.05,1.23-12.24,1.23
						c-6.98,0-13.68-1.18-19.93-3.34c-13.37-4.64-24.62-13.82-31.9-25.69c-5.59-9.11-8.84-19.8-8.93-31.25c0-0.1,0-0.19,0-0.29h0.79
						c0,0.1,0.01,0.19,0.01,0.29c0,0.03,0,0.07,0,0.1c1.25,25.85,18.67,47.46,42.36,54.94c5.78,1.83,11.94,2.81,18.33,2.81
						c2.88,0,5.71-0.2,8.49-0.59c17.2-2.4,32.09-12.01,41.52-25.66c0.08-0.11,0.15-0.22,0.22-0.33c0.03-0.05,0.06-0.09,0.09-0.14
						L236.56,352.4z"/>
				</g>
				<g>
					<path class="st5" d="M226.07,342.13c0,0-0.01,0.01-0.01,0.01c-0.06,0.12-0.12,0.24-0.19,0.36
						c-7.74,14.76-23.21,24.83-41.04,24.83c-25.58,0-46.31-20.74-46.31-46.31c0-0.05,0-0.11,0-0.16c0-0.03,0-0.07,0-0.1
						c0-0.1,0-0.19,0-0.29h0.58c0,0.1,0.01,0.19,0.01,0.29c0,0.03,0,0.07,0,0.1c0.89,24.8,21.27,44.63,46.28,44.63
						c17.19,0,32.19-9.37,40.18-23.27c0.07-0.12,0.13-0.23,0.2-0.35c0,0,0-0.01,0.01-0.01L226.07,342.13z"/>
				</g>
				<g>
					<path class="st5" d="M215.53,331.82c-0.03,0.09-0.06,0.17-0.09,0.25c-4.64,12.46-16.65,21.33-30.72,21.33
						c-18.02,0-32.65-14.55-32.77-32.54c0-0.03,0-0.07,0-0.1c0-0.05,0-0.09,0-0.14v-0.15h0.42c0,0.1,0.01,0.19,0.01,0.29
						c0,0.03,0,0.07,0,0.1c0.8,17.38,15.16,31.23,32.74,31.23c13.61,0,25.28-8.3,30.24-20.11c0.03-0.08,0.07-0.16,0.1-0.24
						L215.53,331.82z"/>
				</g>
				<g>
					<path class="st6" d="M293.89,201.2l-0.13,0.01l0.13-0.02c-0.03-0.23-0.05-0.45-0.07-0.65l-0.05-0.52l-0.3,0.43
						c-6.55,9.24-13.87,9.59-24.31,9.07c-8.08,0-12.53,3.08-14.83,5.67c-1.82,2.05-2.63,4.1-2.94,5.1c-0.31-1.01-1.12-3.06-2.94-5.1
						c-2.31-2.59-6.75-5.67-14.84-5.67c-10.43,0.52-17.76,0.17-24.3-9.07l-0.3-0.43l-0.05,0.52c-0.02,0.2-0.04,0.42-0.07,0.66
						c-0.26,2.25-0.69,6.03,1.75,10.59c2.93,5.51,9.26,10.59,18.8,15.09c13.71,6.23,14.23,15.23,14.43,19.66h-0.03l-0.01,6.5
						c0,5.38-4.38,9.76-9.76,9.76c-1.57,0-3.14-0.39-4.53-1.11l-0.04-0.04h-0.01c-0.73-0.56-1.48-1.1-2.23-1.62l-0.02-0.01
						c-12.49-8.71-27.16-13.31-42.44-13.31c-10,0-19.71,1.95-28.84,5.81c-8.83,3.72-16.76,9.05-23.58,15.84
						c-6.82,6.79-12.18,14.7-15.94,23.5c-3.89,9.12-5.89,18.81-5.93,28.8V321c0,10.03,1.96,19.76,5.84,28.92
						c3.74,8.85,9.1,16.79,15.92,23.61c6.82,6.82,14.77,12.18,23.61,15.92c9.16,3.87,18.89,5.84,28.92,5.84
						c24.68,0,47.68-12.21,61.54-32.67c8.34-12.3,12.74-26.69,12.74-41.61c0-0.6-0.01-1.2-0.02-1.76l0-0.03l-0.15-71.81h0l0.02-0.5
						c0.19-4.45,0.58-13.71,14.44-20.01c9.54-4.5,15.86-9.58,18.8-15.09C294.57,207.22,294.14,203.45,293.89,201.2z M161.24,344.52
						c6.28,6.28,14.64,9.74,23.52,9.74c6.98,0,13.65-2.14,19.31-6.18c5.45-3.89,9.55-9.25,11.88-15.5l10.04,10.04
						c-8.08,15.38-23.86,24.92-41.22,24.92c-25.67,0-46.55-20.88-46.55-46.55v-0.14h13.29c0,0.05,0,0.09,0,0.14
						C151.5,329.88,154.96,338.23,161.24,344.52z M184.76,353.87c-18.13,0-32.87-14.75-32.87-32.87v-0.14h13.29V321
						c0,1.33,0.13,2.65,0.4,3.94c1.86,9.06,9.93,15.64,19.19,15.64c9.26,0,17.33-6.58,19.18-15.64c0.26-1.29,0.4-2.62,0.4-3.94
						v-0.02l11.3,11.3C210.92,345.2,198.52,353.87,184.76,353.87z M124.54,320.86h13.29V321c0,6.34,1.24,12.48,3.69,18.27
						c2.36,5.59,5.75,10.61,10.06,14.92c4.31,4.31,9.33,7.7,14.92,10.06c5.79,2.45,11.93,3.69,18.27,3.69c8.74,0,17.27-2.42,24.67-7
						c7.12-4.41,12.94-10.64,16.84-18.02l9.74,9.74c-11.08,17.89-30.23,28.57-51.25,28.57c-33.21,0-60.22-27.02-60.22-60.22V320.86z
						 M184.76,394.89c-40.75,0-73.9-33.15-73.9-73.9v-0.14h13.28V321c0,8.18,1.6,16.12,4.76,23.59c3.05,7.22,7.42,13.7,12.99,19.27
						c5.57,5.57,12.05,9.94,19.27,12.99c7.47,3.16,15.41,4.76,23.59,4.76c10.54,0,20.92-2.75,30.02-7.94
						c8.75-5,16.19-12.17,21.51-20.73l9.6,9.6C232.1,382.79,209.25,394.89,184.76,394.89z"/>
					<path class="st3" d="M184.76,395.77c-10.09,0-19.89-1.98-29.11-5.88c-8.91-3.77-16.9-9.16-23.77-16.02
						c-6.87-6.86-12.26-14.86-16.02-23.77c-3.9-9.22-5.88-19.01-5.88-29.11v-0.33c0.04-10.06,2.05-19.81,5.97-28.99
						c3.78-8.87,9.18-16.83,16.04-23.66c6.86-6.83,14.85-12.2,23.73-15.95c9.2-3.88,18.97-5.85,29.03-5.85
						c15.38,0,30.15,4.63,42.72,13.4l0.02,0.02c0.71,0.5,1.42,1.01,2.11,1.53h0.01l0.14,0.11c1.31,0.68,2.78,1.04,4.26,1.04
						c5.11,0,9.27-4.16,9.27-9.27l0.01-6.99h0.01c-0.21-4.41-1.07-12.8-14.12-18.73c-9.64-4.55-16.04-9.7-19.03-15.31
						c-2.5-4.7-2.06-8.57-1.8-10.88c0.03-0.26,0.05-0.47,0.07-0.65l0.17-1.82l1.06,1.49c6.41,9.04,13.62,9.38,23.88,8.87l0.02,0
						c8.27,0,12.83,3.17,15.21,5.83c1.3,1.46,2.1,2.92,2.58,4.03c0.48-1.11,1.28-2.57,2.58-4.03c2.37-2.66,6.94-5.83,15.2-5.83
						l0.02,0c10.28,0.51,17.49,0.17,23.89-8.87l1.06-1.5l0.17,1.83c0.02,0.19,0.04,0.39,0.07,0.64l0.05,0.45l0,0
						c0.26,2.34,0.5,6.02-1.85,10.44c-2.98,5.61-9.38,10.75-19.02,15.3c-13.6,6.18-13.98,15.24-14.17,19.59l-0.02,0.52l0.15,71.76
						l0,0.03c0.01,0.55,0.02,1.14,0.02,1.77c0,15.02-4.44,29.5-12.83,41.89C232.76,383.47,209.6,395.77,184.76,395.77z
						 M111.35,321.35c0.19,40.32,33.05,73.06,73.41,73.06c24.19,0,46.78-11.89,60.5-31.82l-8.88-8.88
						c-5.34,8.41-12.71,15.45-21.36,20.38c-9.17,5.24-19.63,8.01-30.26,8.01c-8.25,0-16.25-1.62-23.78-4.8
						c-7.27-3.08-13.81-7.48-19.42-13.09c-5.61-5.61-10.02-12.14-13.09-19.42c-3.14-7.43-4.76-15.31-4.8-23.43H111.35z
						 M125.02,321.35c0.19,32.78,26.91,59.39,59.74,59.39c20.72,0,39.62-10.47,50.63-28.02l-9-9c-3.94,7.21-9.71,13.3-16.71,17.63
						c-7.47,4.63-16.09,7.07-24.93,7.07c-6.4,0-12.61-1.25-18.46-3.73c-5.65-2.39-10.72-5.81-15.07-10.16
						c-4.36-4.36-7.77-9.43-10.16-15.07c-2.43-5.74-3.68-11.83-3.73-18.11H125.02z M138.7,321.35
						c0.19,25.24,20.78,45.71,46.06,45.71c17.05,0,32.59-9.32,40.63-24.35l-9.25-9.25c-2.4,6.04-6.46,11.22-11.78,15.02
						c-5.74,4.1-12.52,6.27-19.59,6.27c-9.02,0-17.49-3.51-23.86-9.89h0c0,0,0,0,0,0c-6.29-6.29-9.79-14.63-9.88-23.51H138.7z
						 M236.62,352.57L236.62,352.57l9.47,9.47c8.15-12.16,12.46-26.34,12.46-41.05c0-0.62-0.01-1.21-0.02-1.74l0-0.04l-0.15-72.3
						h0.02l0-0.03c0.1-2.3,0.25-5.76,2.15-9.51c2.27-4.49,6.51-8.16,12.58-10.92c9.44-4.45,15.69-9.46,18.57-14.88
						c2.33-4.38,1.95-8.02,1.7-10.22c-3.02,4.06-6.38,6.54-10.51,7.77c-4.2,1.25-8.91,1.14-13.77,0.89c-7.89,0-12.22,3-14.46,5.51
						c-1.76,1.97-2.53,3.93-2.84,4.92l-0.46,1.5l-0.47-1.5c-0.31-0.99-1.09-2.96-2.84-4.92c-2.24-2.51-6.57-5.5-14.47-5.51
						c-4.86,0.24-9.56,0.36-13.76-0.89c-4.13-1.23-7.49-3.71-10.51-7.77c-0.25,2.21-0.63,5.85,1.7,10.23
						c2.88,5.42,9.13,10.42,18.58,14.88c6.01,2.73,10.22,6.34,12.51,10.72c1.95,3.75,2.11,7.26,2.2,9.36l0.02,0.51h-0.05l-0.01,6.01
						c0,5.65-4.6,10.24-10.24,10.24c-1.64,0-3.27-0.4-4.72-1.15h-0.02l-0.14-0.1c-0.72-0.55-1.47-1.09-2.22-1.61l-0.02-0.02
						c-12.4-8.65-26.98-13.22-42.16-13.22c-9.94,0-19.58,1.94-28.65,5.77c-8.77,3.7-16.65,8.99-23.42,15.74
						c-6.77,6.74-12.1,14.6-15.83,23.35c-3.83,8.97-5.81,18.5-5.89,28.32h54.7V321c0,1.3,0.13,2.59,0.39,3.84
						c1.81,8.84,9.68,15.25,18.71,15.25c9.03,0,16.9-6.41,18.71-15.25c0.26-1.26,0.39-2.55,0.39-3.84v-1.19l11.9,11.9l0,0
						L236.62,352.57L236.62,352.57z M152.37,321.35c0.19,17.7,14.64,32.04,32.39,32.04c13.45,0,25.59-8.42,30.32-20.98l-10.28-10.28
						c-0.05,0.98-0.18,1.96-0.38,2.91c-1.91,9.29-10.17,16.03-19.66,16.03c-9.49,0-17.76-6.74-19.66-16.03
						c-0.25-1.21-0.38-2.45-0.41-3.69H152.37z M293.49,201.23c0,0-0.01,0.01-0.01,0.01l0.26-0.03l0-0.01L293.49,201.23z"/>
				</g>
				<g>
					<path class="st4" d="M190.67,318.4c0,3.26-2.65,5.91-5.91,5.91c-3.26,0-5.91-2.65-5.91-5.91c0-3.26,2.65-5.91,5.91-5.91
						C188.02,312.49,190.67,315.14,190.67,318.4z"/>
					<path class="st3" d="M184.76,324.55c-3.39,0-6.15-2.76-6.15-6.15c0-3.39,2.76-6.15,6.15-6.15c3.39,0,6.15,2.76,6.15,6.15
						C190.91,321.79,188.15,324.55,184.76,324.55z M184.76,312.73c-3.13,0-5.67,2.54-5.67,5.67c0,3.12,2.54,5.67,5.67,5.67
						c3.12,0,5.67-2.54,5.67-5.67C190.43,315.28,187.88,312.73,184.76,312.73z"/>
				</g>
				<g>
					<path class="st3" d="M157.75,258.5c-0.9,3.83-4.73,6.21-8.56,5.31c-0.72-0.17-1.39-0.44-1.99-0.8
						c4.68,0.57,9.15-2.21,10.73-6.65C157.97,257.06,157.92,257.78,157.75,258.5z"/>
				</g>
				<g class="st7">
					<path class="st4" d="M191.73,247.24c-37.5,3.52-66.86,35.03-66.97,73.42h-14.01c0.12-40.75,33.2-73.75,73.98-73.75
						C187.08,246.91,189.42,247.02,191.73,247.24z"/>
				</g>
			</g>
		</g>
		<g>
			<path class="st4" d="M379.36,308.48l6.89-36.42h10.51l-11.36,51.19h-10.62L366.46,289l-8.33,34.24h-10.62l-11.36-51.19h10.51
				l6.93,36.35l8.44-36.35h8.93L379.36,308.48z"/>
			<path class="st4" d="M444.12,323.24h-10.55V301.3H413v21.94h-10.55v-51.19H413v20.74h20.57v-20.74h10.55V323.24z"/>
			<path class="st4" d="M482.86,312.7h-18.49l-3.52,10.55h-11.21l19.05-51.19h9.77l19.16,51.19h-11.21L482.86,312.7z M467.21,304.15
				h12.8l-6.43-19.16L467.21,304.15z"/>
			<path class="st4" d="M512.95,314.77h22.39v8.47H502.4v-51.19h10.55V314.77z"/>
			<path class="st4" d="M572.19,300.99h-20.25v13.78h23.77v8.47h-34.31v-51.19h34.24v8.54h-23.7v12.2h20.25V300.99z"/>
			<path class="st4" d="M608.44,309.81c0-1.99-0.7-3.52-2.11-4.59c-1.41-1.07-3.94-2.19-7.59-3.38c-3.66-1.18-6.55-2.35-8.68-3.5
				c-5.81-3.14-8.72-7.37-8.72-12.69c0-2.77,0.78-5.23,2.34-7.4c1.56-2.17,3.8-3.86,6.71-5.08c2.92-1.22,6.19-1.83,9.83-1.83
				c3.66,0,6.91,0.66,9.77,1.99c2.86,1.32,5.08,3.19,6.66,5.61c1.58,2.41,2.37,5.16,2.37,8.23h-10.55c0-2.34-0.74-4.17-2.21-5.47
				s-3.55-1.95-6.22-1.95c-2.58,0-4.58,0.54-6.01,1.63s-2.14,2.53-2.14,4.31c0,1.66,0.84,3.06,2.51,4.18s4.14,2.18,7.4,3.16
				c6,1.81,10.37,4.04,13.11,6.71s4.11,6,4.11,9.98c0,4.43-1.68,7.9-5.03,10.42s-7.86,3.78-13.54,3.78c-3.94,0-7.52-0.72-10.76-2.16
				s-5.7-3.42-7.4-5.92s-2.55-5.41-2.55-8.72h10.58c0,5.65,3.38,8.47,10.13,8.47c2.51,0,4.46-0.51,5.87-1.53
				S608.44,311.64,608.44,309.81z"/>
			<path class="st4" d="M655.3,323.24h-10.55v-51.19h10.55V323.24z"/>
			<path class="st4" d="M706.7,323.24h-10.55l-20.53-33.68v33.68h-10.55v-51.19h10.55l20.57,33.75v-33.75h10.51V323.24z"/>
			<path class="st4" d="M754.65,272.05v33.72c0,5.6-1.75,10.03-5.26,13.29s-8.29,4.89-14.36,4.89c-5.98,0-10.72-1.58-14.24-4.75
				s-5.31-7.51-5.38-13.04v-34.1h10.55v33.79c0,3.35,0.8,5.79,2.41,7.33s3.83,2.3,6.66,2.3c5.93,0,8.94-3.12,9.04-9.35v-34.07
				H754.65z"/>
		</g>
	</g>
	<text transform="matrix(1 0 0 1 334.3147 317.9448)" class="st8 st9 st10">WHALES INU</text>
</g>
</svg>
